<?xml version="1.0" encoding="utf-8"?>
<!-- Generator: Adobe Illustrator 19.1.0, SVG Export Plug-In . SVG Version: 6.00 Build 0)  -->
<svg version="1.1" id="Layer_1" xmlns:sketch="http://www.bohemiancoding.com/sketch/ns"
	 xmlns="http://www.w3.org/2000/svg" xmlns:xlink="http://www.w3.org/1999/xlink" x="0px" y="0px" viewBox="-197 465.1 60 60"
	 style="enable-background:new -197 465.1 60 60;" xml:space="preserve">
<style type="text/css">
	.st0{fill:#CA4738;}
	.st1{fill:#FFFFFF;}
	.st2{fill:#292F33;}
	.st3{fill:#3B5998;}
	.st4{fill:#55ACEE;}
	.st5{clip-path:url(#SVGID_2_);fill-rule:evenodd;clip-rule:evenodd;fill:#292F33;}
	.st6{opacity:0.12;fill-rule:evenodd;clip-rule:evenodd;fill:#420000;}
	.st7{fill:url(#SVGID_3_);}
	.st8{fill:#0065A1;}
</style>
<g>
	<path id="Blue_2_" class="st2" d="M-140.3,525.1c1.8,0,3.3-1.5,3.3-3.3v-53.4c0-1.8-1.5-3.3-3.3-3.3h-53.4c-1.8,0-3.3,1.5-3.3,3.3
		v53.4c0,1.8,1.5,3.3,3.3,3.3H-140.3z"/>
	<path id="f_1_" class="st1" d="M-155.4,525.1v-23.2h7.8l1.2-9.1h-9V487c0-2.6,0.7-4.4,4.5-4.4l4.8,0v-8.1c-0.8-0.1-3.7-0.4-7-0.4
		c-6.9,0-11.6,4.2-11.6,12v6.7h-7.8v9.1h7.8v23.2H-155.4z"/>
</g>
</svg>
