<svg version="1.1" xmlns="http://www.w3.org/2000/svg" x="0" y="0" viewBox="-277 455.1 70 70" xml:space="preserve" enable-background="new -267 465.1 60 60"><style type="text/css">
	.st0{fill:#CA4738;}
	.st1{fill:#FFFFFF;}
	.st2{fill:#292F33;}
	.st3{fill:#3B5998;}
	.st4{fill:#55ACEE;}
	.st5{clip-path:url(#SVGID_2_);fill-rule:evenodd;clip-rule:evenodd;fill:#292F33;}
	.st6{opacity:0.12;fill-rule:evenodd;clip-rule:evenodd;fill:#420000;}
	.st7{fill:url(#SVGID_3_);}
	.st8{fill:#0065A1;}
</style><g transform="translate(-473.000000, -138.000000)"><g transform="translate(173.000000, 138.000000)"><path class="st2" d="M36 465.1h54c1.7 0 3 1.3 3 3v54c0 1.7-1.3 3-3 3H36c-1.7 0-3-1.3-3-3v-54C33 466.5 34.3 465.1 36 465.1z"/></g><g transform="translate(182.000000, 150.000000)"><path class="st1" d="M67.1 481.7v-3.6h-2.6v3.6h-3.7v2.6h3.7v3.7h2.6v-3.7h3.6v-2.6H67.1zM48.4 481.5v4.1c0 0 4 0 5.6 0 -0.9 2.7-2.2 4.1-5.6 4.1 -3.4 0-6.1-2.8-6.1-6.2s2.7-6.2 6.1-6.2c1.8 0 3 0.6 4 1.5 0.9-0.9 0.8-1 3-3 -1.8-1.7-4.3-2.7-7-2.7 -5.7 0-10.4 4.7-10.4 10.4 0 5.8 4.7 10.4 10.4 10.4 8.6 0 10.7-7.5 10-12.5H48.4z"/></g></g></svg>