<?xml version="1.0" encoding="UTF-8" standalone="no"?>
<svg width="24px" height="21px" viewBox="0 0 32 32" version="1.1" xmlns="http://www.w3.org/2000/svg" xmlns:xlink="http://www.w3.org/1999/xlink">
    <defs></defs>
    <g id="Page-1" stroke="none" stroke-width="1" fill="none" fill-rule="evenodd">
        <g id="symbol-phone" stroke="#555555" stroke-width="1.3">
            <path d="M13.9051006,17.8744319 C15.6574346,19.6500573 17.8258662,20.5999183 17.8258662,20.5999183 C17.9913066,20.6782901 18.2383617,20.6419542 18.3744255,20.5216371 L21.0497131,18.1559602 C21.1872336,18.0343549 21.4087466,18.0355283 21.545043,18.1590951 L25.8856492,22.0943048 C26.0216917,22.2176415 26.0354507,22.4276655 25.9153503,22.5645814 L23.1233533,25.7474888 C23.0037142,25.8838787 22.7584115,25.9990419 22.5764012,26 C22.5764012,26 18.0716698,25.7182006 14.6758455,23.3406997 C11.2800211,20.9631987 8.52795036,17.1454866 8.52795036,17.1454866 M14.1314144,18.0921432 C12.355789,16.3398092 11.405928,14.1713776 11.405928,14.1713776 C11.3275562,14.0059372 11.363892,13.7588821 11.4842092,13.6228183 L13.8498861,10.9475307 C13.9714914,10.8100101 13.970318,10.5884972 13.8467512,10.4522008 L9.91154148,6.11159462 C9.78820478,5.97555205 9.57818075,5.96179304 9.44126489,6.08189351 L6.25835748,8.87389051 C6.12196759,8.99352961 6.0068044,9.23883232 6.00584629,9.42084255 C6.00584629,9.42084255 5.75615926,13.5602539 8.66514662,17.3213983" id="Path-218-Copy"></path>
        </g>
        <g id="resmio-icons" transform="translate(-225.000000, -599.000000)"></g>
    </g>
</svg>