<svg viewBox="-1 0 32 32" version="1.1" xmlns="http://www.w3.org/2000/svg"><g stroke="none" stroke-width="1" fill="none" fill-rule="evenodd"><g stroke="#555555" stroke-width="1.3"><path d="M13.91 17.87C15.66 19.65 17.83 20.6 17.83 20.6 17.99 20.68 18.24 20.64 18.37 20.52L21.05 18.16C21.19 18.03 21.41 18.04 21.55 18.16L25.89 22.09C26.02 22.22 26.04 22.43 25.92 22.56L23.12 25.75C23 25.88 22.76 26 22.58 26 22.58 26 18.07 25.72 14.68 23.34 11.28 20.96 8.53 17.15 8.53 17.15M14.13 18.09C12.36 16.34 11.41 14.17 11.41 14.17 11.33 14.01 11.36 13.76 11.48 13.62L13.85 10.95C13.97 10.81 13.97 10.59 13.85 10.45L9.91 6.11C9.79 5.98 9.58 5.96 9.44 6.08L6.26 8.87C6.12 8.99 6.01 9.24 6.01 9.42 6.01 9.42 5.76 13.56 8.67 17.32"/></g><g transform="translate(-225.000000, -599.000000)"/></g></svg>